
        <svg xmlns="http://www.w3.org/2000/svg" xmlns:xlink="http://www.w3.org/1999/xlink" version="1.1" width="3147.783251231527" height="827.5862068965517" viewBox="0 0 3147.783251231527 827.5862068965517">
			
			<g transform="scale(7.389162561576355) translate(10, 10)">
				<defs id="SvgjsDefs1754"/><g id="SvgjsG1755" featureKey="symbolFeature-0" transform="matrix(0.9481563317939955,0,0,0.9481563317939955,-14.970438998899247,-3.7840920865685868)" fill="#fff"><path xmlns="http://www.w3.org/2000/svg" d="M69.974,34.035v3.929c6.803,5.711,11.137,14.275,11.137,23.833c0,10.928-5.665,20.556-14.211,26.105V59.087  l-9.219-5.079v37.938c-1.005,0.256-2.03,0.463-3.071,0.618v-58.51l-9.217-5.082v63.591c-1.042-0.155-2.067-0.362-3.073-0.618V9.071  l-9.217-5.08v83.912c-8.547-5.55-14.211-15.179-14.211-26.106c0-9.558,4.333-18.122,11.138-23.833v-3.929  c-8.619,6.218-14.241,16.345-14.241,27.762c0,18.864,15.348,34.212,34.212,34.212c18.865,0,34.213-15.348,34.213-34.212  C84.213,50.38,78.591,40.253,69.974,34.035z"/></g><g id="SvgjsG1756" featureKey="textGroupContainer" transform="matrix(1,0,0,1,405,0)" fill="#fff"><rect xmlns="http://www.w3.org/2000/svg" y="0" height="1" width="1" opacity="0"/><rect xmlns="http://www.w3.org/2000/svg" y="0" x="-320" width="3" height="92"/></g><g id="SvgjsG1757" featureKey="nameFeature-0" transform="matrix(1.2304704561933868,0,0,1.2304704561933868,96.0776191442005,21.366302445191756)" fill="#fff"><path d="M33.438 8.75 c-0.67711 -1.4584 -1.6147 -2.7605 -2.8126 -3.9063 c-1.25 -1.0938 -2.7344 -1.9531 -4.4531 -2.5781 c-1.875 -0.57289 -3.8541 -0.85938 -5.9375 -0.85938 l-14.609 0 l0 5.8594 l14.063 0 c2.3438 0 4.2969 0.57289 5.8594 1.7188 c1.4584 1.0938 2.1875 2.7604 2.1875 5 c0 2.0313 -0.70313 3.6719 -2.1094 4.9219 c-1.5104 1.1979 -3.4895 1.7969 -5.9374 1.7969 l-14.063 0 l0 17.891 l6.4844 0 l0 -11.953 l7.3438 0 c1.9271 0 3.8802 -0.28648 5.8594 -0.85938 c1.8229 -0.57289 3.3854 -1.3802 4.6875 -2.4218 c1.3541 -1.0416 2.4219 -2.3698 3.2031 -3.9844 c0.78125 -1.5625 1.1719 -3.3854 1.1719 -5.4688 c0 -1.9791 -0.3125 -3.6979 -0.9375 -5.1563 z M47.0313 1.4059999999999988 l6.4063 0 l0 31.25 l19.531 0 l0 5.9375 l-25.938 0 l0 -37.188 z M110.703 38.5937 l7.0313 0 l-13.594 -37.266 l-7.1094 0 l7.8906 22.266 z M81.9531 38.5937 l6.875 0 l8.125 -19.844 l-3.3594 -8.9063 z M123.8281 38.5937 l6.4844 0 l0 -19.922 l-6.4844 -9.1406 l0 29.063 z M149.766 1.4059999999999988 l0 25.703 l-18.359 -25.703 l-7.0313 0 l26.406 37.188 l5.3906 0 l0 -37.188 l-6.4063 0 z M166.0938 1.4059999999999988 l27.813 0 l0 5.9375 l-27.813 0 l0 -5.9375 z M166.0938 32.6562 l27.734 0 l0 5.9375 l-27.734 0 l0 -5.9375 z M166.0938 16.875 l25.078 0 l0 5.8594 l-25.078 0 l0 -5.8594 z M216.484 29.375 l3.5156 -4.6875 l-0.078125 -0.15625 z M236.875 1.4059999999999988 l-7.5 0 l-9.2969 13.359 l-9.2188 -13.359 l-7.7344 0 l13.047 18.281 l-13.516 18.906 l8.3594 0 z M237.344 38.5937 l-10.313 -14.609 l-3.9063 5.2344 l6.5625 9.375 l7.6563 0 z"/></g>
			</g>
		</svg>
	